<svg preserveAspectRatio="none" width="100%" height="100%" overflow="visible" style="display: block;" viewBox="0 0 16 16" fill="none" xmlns="http://www.w3.org/2000/svg">
<g id="lucide/hand-coins" clip-path="url(#clip0_0_73)">
<path id="Vector (Stroke)" d="M10.6667 3.39974C12.0911 3.39974 13.2471 4.54546 13.2656 5.96549C13.3123 5.96352 13.3592 5.96157 13.4062 5.96289C13.9368 5.97789 14.4401 6.2028 14.8047 6.58854C15.1692 6.97431 15.3653 7.48962 15.3503 8.02018C15.3352 8.54942 15.1106 9.05043 14.7266 9.41471L14.7272 9.41536L11.6758 12.3333C11.0671 13.0115 10.219 13.3333 9.33333 13.3333H6.66667C6.40769 13.3333 6.30477 13.4164 6.26693 13.4668C6.23914 13.5038 6.20737 13.5379 6.17253 13.5684L5.64193 14.0326L5.80469 14.1953C6.06504 14.4557 6.06504 14.8777 5.80469 15.138C5.54434 15.3984 5.12233 15.3984 4.86198 15.138L0.861979 11.138C0.60163 10.8777 0.60163 10.4557 0.861979 10.1953C1.12233 9.93496 1.54434 9.93496 1.80469 10.1953L2.00781 10.3984L5.24154 7.2806C5.60437 6.83707 6.14592 6.66667 6.66667 6.66667H8.153C8.09671 6.4539 8.06641 6.23046 8.06641 6C8.06641 4.56406 9.23073 3.39974 10.6667 3.39974ZM13.3691 7.29557C13.2142 7.29119 13.063 7.34089 12.9414 7.4349L12.8867 7.48177L12.5241 7.81771C12.4663 7.87679 12.4056 7.93295 12.3424 7.98633L10.0872 10.082C10.0666 10.1012 10.0444 10.1181 10.0221 10.1341C9.65338 10.4748 9.17062 10.6667 8.66667 10.6667H7.33333C6.96514 10.6667 6.66667 10.3682 6.66667 10C6.66667 9.63181 6.96514 9.33333 7.33333 9.33333H8.66667C8.84348 9.33333 9.013 9.26304 9.13802 9.13802C9.26305 9.013 9.33333 8.84348 9.33333 8.66667C9.33333 8.48986 9.26305 8.32034 9.13802 8.19531C9.013 8.07029 8.84348 8 8.66667 8H6.66667C6.40769 8 6.30477 8.08303 6.26693 8.13346C6.24557 8.16194 6.22158 8.18884 6.19596 8.21354L2.95117 11.3418L4.69661 13.0872L5.2513 12.6022C5.61404 12.1674 6.15054 12 6.66667 12H9.33333C9.90204 12 10.3756 11.7968 10.6986 11.4277L10.7389 11.3848L13.806 8.45182L13.8086 8.44857C13.9373 8.32694 14.0125 8.15941 14.0176 7.98242C14.0226 7.80534 13.957 7.63331 13.8353 7.50456C13.7137 7.37592 13.5461 7.30064 13.3691 7.29557ZM5.33333 3.33333C5.33333 2.59695 4.73638 2 4 2C3.26362 2 2.66667 2.59695 2.66667 3.33333C2.66667 4.06971 3.26362 4.66667 4 4.66667C4.73638 4.66667 5.33333 4.06971 5.33333 3.33333ZM9.39974 6C9.39974 6.69956 9.96711 7.26693 10.6667 7.26693C11.3662 7.26693 11.9336 6.69956 11.9336 6C11.9336 5.30044 11.3662 4.73307 10.6667 4.73307C9.96711 4.73307 9.39974 5.30044 9.39974 6ZM6.66667 3.33333C6.66667 4.80609 5.47276 6 4 6C2.52724 6 1.33333 4.80609 1.33333 3.33333C1.33333 1.86057 2.52724 0.666667 4 0.666667C5.47276 0.666667 6.66667 1.86057 6.66667 3.33333Z" fill="var(--fill-0, #8FAF8F)"/>
</g>
<defs>
<clipPath id="clip0_0_73">
<rect width="16" height="16" fill="white"/>
</clipPath>
</defs>
</svg>
